# xmcd
#
# Track frame offsets: 
#        150
#        15402
#        30507
#        47970
#        66097
#        82930
#        100725
#        115392
#        129995
#        145802
#        158277
#        174395
#        189967
#        208252
#        225727
#        241172
#        258715
#        276194
#        293787
#
# Disc length: 4182 seconds
#
# Revision: 6
# Processed by: cddbd v1.5.2PL0 Copyright (c) Steve Scherf et al.
# Submitted via: ExactAudioCopyFreeDBPlugin 1.0
#
DISCID=fd105413
DTITLE=Mariah Carey - The Emancipation Of Mimi (Ultra Platinum Edition
DTITLE=)
DYEAR=2005
DGENRE=R&B
TTITLE0=It's Like That
TTITLE1=We Belong Together
TTITLE2=Shake It Off
TTITLE3=Mine Again
TTITLE4=Say Somethin' Feat. Snoop Dogg
TTITLE5=Stay The Night
TTITLE6=Get Your Number Feat. Jermaine Dupri
TTITLE7=One And Only Feat. Twista
TTITLE8=Circles
TTITLE9=Your Girl
TTITLE10=I Wish You Knew
TTITLE11=To The Floor Feat. Nelly
TTITLE12=Joy Ride
TTITLE13=Fly Like A Bird
TTITLE14=Sprung
TTITLE15=Don't Forget About Us
TTITLE16=Makin' It Last All Night (What I Do) Feat. Jermaine Dupri
TTITLE17=So Lonely (One and Only Part II)
TTITLE18=We Belong Together (Remix) Feat. Jadakiss and Styles P
EXTD=YEAR: 2005
EXTT0=
EXTT1=
EXTT2=
EXTT3=
EXTT4=
EXTT5=
EXTT6=
EXTT7=
EXTT8=
EXTT9=
EXTT10=
EXTT11=
EXTT12=
EXTT13=
EXTT14=
EXTT15=
EXTT16=
EXTT17=
EXTT18=
PLAYORDER=
